<svg width="20" height="20" viewBox="0 0 20 20" fill="none" xmlns="http://www.w3.org/2000/svg">
<g clip-path="url(#clip0_2010_5819)">
<path d="M2.25009 8.5829C2.06338 8.76942 1.91526 8.99091 1.81421 9.2347C1.71315 9.4785 1.66113 9.73982 1.66113 10.0037C1.66113 10.2676 1.71315 10.529 1.81421 10.7728C1.91526 11.0166 2.06338 11.238 2.25009 11.4246L8.57509 17.7496C8.7616 17.9363 8.98309 18.0844 9.22689 18.1854C9.47069 18.2865 9.73201 18.3385 9.99592 18.3385C10.2598 18.3385 10.5212 18.2865 10.765 18.1854C11.0087 18.0844 11.2302 17.9363 11.4168 17.7496L17.7418 11.4246C17.9285 11.238 18.0766 11.0166 18.1776 10.7728C18.2787 10.529 18.3307 10.2676 18.3307 10.0037C18.3307 9.73982 18.2787 9.4785 18.1776 9.2347C18.0766 8.99091 17.9285 8.76942 17.7418 8.5829L11.4168 2.2579C11.2302 2.07119 11.0087 1.92307 10.765 1.82202C10.5212 1.72096 10.2598 1.66895 9.99592 1.66895C9.73201 1.66895 9.47069 1.72096 9.22689 1.82202C8.98309 1.92307 8.7616 2.07119 8.57509 2.2579L2.25009 8.5829Z" stroke="white" stroke-width="1.66667" stroke-linecap="round" stroke-linejoin="round"/>
</g>
<defs>
<clipPath id="clip0_2010_5819">
<rect width="20" height="20" fill="white"/>
</clipPath>
</defs>
</svg>
